<svg xmlns="http://www.w3.org/2000/svg" viewBox="0 0 300 300" role="img" aria-label="Terranex Civil Engineering">
<circle cx="150" cy="140" r="98" fill="none" stroke="#b9893f" stroke-width="5"/>
<circle cx="150" cy="140" r="89" fill="none" stroke="#8a6630" stroke-width="2"/>
<g><g transform="translate(130.2 219.6) rotate(194.0)"><ellipse rx="4.6" ry="10.5" fill="#a9772f"/><line x1="0" y1="-9" x2="0" y2="9" stroke="#8a6630" stroke-width="0.7"/></g><g transform="translate(114.1 213.7) rotate(206.0)"><ellipse rx="4.6" ry="10.5" fill="#a9772f"/><line x1="0" y1="-9" x2="0" y2="9" stroke="#8a6630" stroke-width="0.7"/></g><g transform="translate(99.5 204.6) rotate(218.0)"><ellipse rx="4.6" ry="10.5" fill="#a9772f"/><line x1="0" y1="-9" x2="0" y2="9" stroke="#8a6630" stroke-width="0.7"/></g><g transform="translate(87.2 192.7) rotate(230.0)"><ellipse rx="4.6" ry="10.5" fill="#a9772f"/><line x1="0" y1="-9" x2="0" y2="9" stroke="#8a6630" stroke-width="0.7"/></g><g transform="translate(77.6 178.5) rotate(242.0)"><ellipse rx="4.6" ry="10.5" fill="#a9772f"/><line x1="0" y1="-9" x2="0" y2="9" stroke="#8a6630" stroke-width="0.7"/></g><g transform="translate(71.2 162.6) rotate(254.0)"><ellipse rx="4.6" ry="10.5" fill="#a9772f"/><line x1="0" y1="-9" x2="0" y2="9" stroke="#8a6630" stroke-width="0.7"/></g><g transform="translate(68.2 145.7) rotate(266.0)"><ellipse rx="4.6" ry="10.5" fill="#a9772f"/><line x1="0" y1="-9" x2="0" y2="9" stroke="#8a6630" stroke-width="0.7"/></g><g transform="translate(68.8 128.6) rotate(278.0)"><ellipse rx="4.6" ry="10.5" fill="#a9772f"/><line x1="0" y1="-9" x2="0" y2="9" stroke="#8a6630" stroke-width="0.7"/></g><g transform="translate(72.9 112.0) rotate(290.0)"><ellipse rx="4.6" ry="10.5" fill="#a9772f"/><line x1="0" y1="-9" x2="0" y2="9" stroke="#8a6630" stroke-width="0.7"/></g><g transform="translate(80.5 96.5) rotate(302.0)"><ellipse rx="4.6" ry="10.5" fill="#a9772f"/><line x1="0" y1="-9" x2="0" y2="9" stroke="#8a6630" stroke-width="0.7"/></g><g transform="translate(91.0 83.0) rotate(314.0)"><ellipse rx="4.6" ry="10.5" fill="#a9772f"/><line x1="0" y1="-9" x2="0" y2="9" stroke="#8a6630" stroke-width="0.7"/></g><g transform="translate(104.1 72.0) rotate(326.0)"><ellipse rx="4.6" ry="10.5" fill="#a9772f"/><line x1="0" y1="-9" x2="0" y2="9" stroke="#8a6630" stroke-width="0.7"/></g><g transform="translate(119.3 64.0) rotate(338.0)"><ellipse rx="4.6" ry="10.5" fill="#a9772f"/><line x1="0" y1="-9" x2="0" y2="9" stroke="#8a6630" stroke-width="0.7"/></g><g transform="translate(135.8 59.2) rotate(350.0)"><ellipse rx="4.6" ry="10.5" fill="#a9772f"/><line x1="0" y1="-9" x2="0" y2="9" stroke="#8a6630" stroke-width="0.7"/></g><g transform="translate(152.9 58.0) rotate(362.0)"><ellipse rx="4.6" ry="10.5" fill="#a9772f"/><line x1="0" y1="-9" x2="0" y2="9" stroke="#8a6630" stroke-width="0.7"/></g><g transform="translate(169.8 60.4) rotate(374.0)"><ellipse rx="4.6" ry="10.5" fill="#a9772f"/><line x1="0" y1="-9" x2="0" y2="9" stroke="#8a6630" stroke-width="0.7"/></g><g transform="translate(185.9 66.3) rotate(386.0)"><ellipse rx="4.6" ry="10.5" fill="#a9772f"/><line x1="0" y1="-9" x2="0" y2="9" stroke="#8a6630" stroke-width="0.7"/></g><g transform="translate(200.5 75.4) rotate(398.0)"><ellipse rx="4.6" ry="10.5" fill="#a9772f"/><line x1="0" y1="-9" x2="0" y2="9" stroke="#8a6630" stroke-width="0.7"/></g><g transform="translate(212.8 87.3) rotate(410.0)"><ellipse rx="4.6" ry="10.5" fill="#a9772f"/><line x1="0" y1="-9" x2="0" y2="9" stroke="#8a6630" stroke-width="0.7"/></g><g transform="translate(222.4 101.5) rotate(422.0)"><ellipse rx="4.6" ry="10.5" fill="#a9772f"/><line x1="0" y1="-9" x2="0" y2="9" stroke="#8a6630" stroke-width="0.7"/></g><g transform="translate(228.8 117.4) rotate(434.0)"><ellipse rx="4.6" ry="10.5" fill="#a9772f"/><line x1="0" y1="-9" x2="0" y2="9" stroke="#8a6630" stroke-width="0.7"/></g><g transform="translate(231.8 134.3) rotate(446.0)"><ellipse rx="4.6" ry="10.5" fill="#a9772f"/><line x1="0" y1="-9" x2="0" y2="9" stroke="#8a6630" stroke-width="0.7"/></g><g transform="translate(231.2 151.4) rotate(458.0)"><ellipse rx="4.6" ry="10.5" fill="#a9772f"/><line x1="0" y1="-9" x2="0" y2="9" stroke="#8a6630" stroke-width="0.7"/></g><g transform="translate(227.1 168.0) rotate(470.0)"><ellipse rx="4.6" ry="10.5" fill="#a9772f"/><line x1="0" y1="-9" x2="0" y2="9" stroke="#8a6630" stroke-width="0.7"/></g><g transform="translate(219.5 183.5) rotate(482.0)"><ellipse rx="4.6" ry="10.5" fill="#a9772f"/><line x1="0" y1="-9" x2="0" y2="9" stroke="#8a6630" stroke-width="0.7"/></g><g transform="translate(209.0 197.0) rotate(494.0)"><ellipse rx="4.6" ry="10.5" fill="#a9772f"/><line x1="0" y1="-9" x2="0" y2="9" stroke="#8a6630" stroke-width="0.7"/></g><g transform="translate(195.9 208.0) rotate(506.0)"><ellipse rx="4.6" ry="10.5" fill="#a9772f"/><line x1="0" y1="-9" x2="0" y2="9" stroke="#8a6630" stroke-width="0.7"/></g></g>
<circle cx="150" cy="140" r="58" fill="#f6f1e7" stroke="#b9893f" stroke-width="3"/>
<circle cx="150" cy="140" r="52" fill="none" stroke="#8a6630" stroke-width="1.5"/>
<g font-family="Georgia, 'Times New Roman', serif" font-weight="700" fill="#2e2417">
  <text x="144" y="158" font-size="62" text-anchor="middle">N</text>
  <text x="148" y="154" font-size="58" text-anchor="middle" fill="#b9893f" stroke="#2e2417" stroke-width="1.2">T</text>
</g>
<path d="M70 196 H230 a10 10 0 0 1 10 10 V250 a10 10 0 0 1 -10 10 H70 a10 10 0 0 1 -10 -10 V206 a10 10 0 0 1 10 -10 Z" fill="#f6f1e7" stroke="#b9893f" stroke-width="3"/>
<g font-family="Georgia, 'Times New Roman', serif" text-anchor="middle" fill="#2e2417">
  <text x="150" y="228" font-size="30" font-weight="700" letter-spacing="2">TERRANEX</text>
  <text x="150" y="245" font-size="12.5" letter-spacing="3" fill="#8a6630">CIVIL ENGINEERING</text>
  <text x="150" y="257" font-size="8.5" letter-spacing="2" fill="#2e2417">EST. 2015</text>
</g>
</svg>